<svg xmlns="http://www.w3.org/2000/svg" viewBox="0 0 131.36 40.73"><defs><style>.cls-1{fill:#f58612;}.cls-2{fill:#3580b5;}.cls-3{fill:#c83a27;}</style></defs><title>Asset 2</title><g id="Layer_2" data-name="Layer 2"><g id="Layer_1-2" data-name="Layer 1"><polygon class="cls-1" points="43.44 9 43.44 9 50.49 9 55.82 23.25 55.89 23.25 60.77 9 67.29 9 59.04 30.01 52.14 30.01 43.44 9"/><path class="cls-2" d="M18,14.18H11.7v7.05a11.12,11.12,0,0,0,.15,1.57,2.07,2.07,0,0,0,.38,1.2,2.36,2.36,0,0,0,1,.83,5.59,5.59,0,0,0,1.8.3c.38,0,.9-.08,1.5-.15A3,3,0,0,0,18,24.53v5.4a22.71,22.71,0,0,1-2.48.53c-.82.07-1.72.07-2.55.07a15.13,15.13,0,0,1-3.3-.3,7.52,7.52,0,0,1-2.62-1.12,5.06,5.06,0,0,1-1.8-2,6.07,6.07,0,0,1-.67-2.93V14.18H0V9H4.58V2.78H11.7V9H18Z"/><path class="cls-2" d="M19.8,9h6.53v3.38h.08a8.05,8.05,0,0,1,2.47-2.93,6.77,6.77,0,0,1,3.61-1,6,6,0,0,1,1.12.07,5.32,5.32,0,0,1,1.05.15v5.93a11,11,0,0,0-1.42-.3,7.06,7.06,0,0,0-1.35-.15A7.32,7.32,0,0,0,29,14.7a4.27,4.27,0,0,0-1.73,1.5,6.2,6.2,0,0,0-.75,2.18c-.07.9-.15,1.87-.15,2.85V30H19.8Z"/><path class="cls-2" d="M35.94,3.38h0A3.37,3.37,0,0,1,37,1a3.17,3.17,0,0,1,2.4-1,3.34,3.34,0,0,1,2.47,1,3.3,3.3,0,0,1,1,2.41,3.35,3.35,0,0,1-3.45,3.45,3.14,3.14,0,0,1-2.4-1A3.37,3.37,0,0,1,35.94,3.38ZM36.16,9h6.45V30H36.16Z"/><path class="cls-1" d="M80,27.38h-.15A5.53,5.53,0,0,1,77,29.78a9.24,9.24,0,0,1-3.75.75,12.09,12.09,0,0,1-2.85-.37A6.68,6.68,0,0,1,68,28.88a5.36,5.36,0,0,1-1.65-2,6.26,6.26,0,0,1-.6-2.78A6.46,6.46,0,0,1,66.39,21a6.94,6.94,0,0,1,1.8-2.1,9.58,9.58,0,0,1,2.63-1.27A18.44,18.44,0,0,1,73.89,17,22.24,22.24,0,0,1,77,16.73c1.06-.08,2-.08,2.93-.08A3.37,3.37,0,0,0,78.7,14a4.57,4.57,0,0,0-2.93-1,6.47,6.47,0,0,0-2.93.68,7.81,7.81,0,0,0-2.32,1.87l-3.45-3.6a11.28,11.28,0,0,1,4.2-2.47,14.49,14.49,0,0,1,5-.9A12.39,12.39,0,0,1,81,9.23a6.38,6.38,0,0,1,2.93,2.1,7.73,7.73,0,0,1,1.5,3.37,21.76,21.76,0,0,1,.45,4.65V30H80Zm-1.65-6.53h-1.8a20.18,20.18,0,0,0-2.18.38,6,6,0,0,0-1.72.9,2.25,2.25,0,0,0-.68,1.72,1.85,1.85,0,0,0,1,1.73,4.18,4.18,0,0,0,2.1.6,7.53,7.53,0,0,0,1.8-.3,5.25,5.25,0,0,0,1.58-.75,3.5,3.5,0,0,0,1.12-1.2A3.11,3.11,0,0,0,80,22.2V20.85Z"/><path class="cls-3" d="M110.2,19.5h0A12.22,12.22,0,0,1,111,15a12.79,12.79,0,0,1,2.25-3.52,10,10,0,0,1,3.37-2.18,11.06,11.06,0,0,1,4.13-.82,10.7,10.7,0,0,1,4.12.82,10.07,10.07,0,0,1,3.38,2.18A9.93,9.93,0,0,1,130.53,15a12.22,12.22,0,0,1,.83,4.5,12.34,12.34,0,0,1-.83,4.58,9.65,9.65,0,0,1-2.25,3.45,10.11,10.11,0,0,1-3.38,2.25,10.49,10.49,0,0,1-4.12.75,10.81,10.81,0,0,1-4.13-.75,10.07,10.07,0,0,1-3.37-2.25A12.4,12.4,0,0,1,111,24.08,12.34,12.34,0,0,1,110.2,19.5Zm5.93,0h0a5.87,5.87,0,0,0,1.2,3.9,4.88,4.88,0,0,0,6.9,0,6,6,0,0,0,1.27-3.9,5.75,5.75,0,0,0-1.27-3.82,4.72,4.72,0,0,0-6.9,0A5.66,5.66,0,0,0,116.13,19.5Z"/><path class="cls-3" d="M101.72,23.4h0a4.29,4.29,0,0,1-3.45,1.43,4.34,4.34,0,0,1-3.52-1.43,5.87,5.87,0,0,1-1.2-3.9,5.66,5.66,0,0,1,1.2-3.82,4.39,4.39,0,0,1,3.52-1.5,4.34,4.34,0,0,1,3.45,1.5,5.67,5.67,0,0,1,1.21,3.82A5.87,5.87,0,0,1,101.72,23.4Zm1.51-14.32h0v2.85a6.22,6.22,0,0,0-.91-1,8,8,0,0,0-1.57-1.05,11.09,11.09,0,0,0-2.1-.75,8.48,8.48,0,0,0-2.48-.3,8.14,8.14,0,0,0-4,1,7.9,7.9,0,0,0-3,2.4,10.36,10.36,0,0,0-1.5,3.45,15.71,15.71,0,0,0-.45,4.13,16.8,16.8,0,0,0,.6,4.42,8.42,8.42,0,0,0,1.65,3.38,7.59,7.59,0,0,0,3.23,2.25,11,11,0,0,0,4.27.75,9.18,9.18,0,0,0,3.08-.6c1.12-.45,2.25-1.2,2.47-2.17v2.1a4.73,4.73,0,0,1-1.2,3.67A5.44,5.44,0,0,1,97,35a12.35,12.35,0,0,1-7.2-2l-3.15,4.65a14.63,14.63,0,0,0,5,2.4,20,20,0,0,0,5.55.67c4.05,0,7-1,9-3.15s2.85-5,2.85-9V9.08Z"/></g></g></svg>